<svg xmlns="http://www.w3.org/2000/svg" width="28" height="28" viewBox="0 0 32 32"><path d="M 16.03125 0 C 7.2006988 0 -1.1564823e-018 7.1694003 0 16 C 0 24.8305 7.2006988 32 16.03125 32 C 24.861791 32 32 24.8305 32 16 C 32 7.1694003 24.861791 0 16.03125 0 z M 16.03125 1 C 24.313394 1 30.96875 7.7178003 30.96875 16 C 30.96875 24.2821 24.313394 31 16.03125 31 C 7.7490955 31 1.03125 24.2821 1.03125 16 C 1.03125 7.7178003 7.7490955 1 16.03125 1 z M 11.28125 14.84375 A 1.15 1.15 0 0 0 10.25 16 A 1.15 1.15 0 0 0 11.40625 17.15625 A 1.15 1.15 0 0 0 12.5625 16 A 1.15 1.15 0 0 0 11.40625 14.84375 A 1.15 1.15 0 0 0 11.28125 14.84375 z M 15.875 14.84375 A 1.15 1.15 0 0 0 14.84375 16 A 1.15 1.15 0 0 0 16 17.15625 A 1.15 1.15 0 0 0 17.15625 16 A 1.15 1.15 0 0 0 16 14.84375 A 1.15 1.15 0 0 0 15.875 14.84375 z M 20.5 14.84375 A 1.15 1.15 0 0 0 19.4375 16 A 1.15 1.15 0 0 0 20.59375 17.15625 A 1.15 1.15 0 0 0 21.75 16 A 1.15 1.15 0 0 0 20.59375 14.84375 A 1.15 1.15 0 0 0 20.5 14.84375 z " color="#000" font-family="Sans" font-weight="400" overflow="visible" style="text-indent:0;text-align:start;line-height:normal;text-transform:none;block-progression:tb;marker:none;-inkscape-font-specification:Sans"/></svg>