<?xml version="1.0" encoding="UTF-8"?>
<svg width="19px" height="19px" viewBox="0 0 19 19" version="1.1" xmlns="http://www.w3.org/2000/svg" xmlns:xlink="http://www.w3.org/1999/xlink" style="background: #03DAC4;">
    <!-- Generator: Sketch 61.2 (89653) - https://sketch.com -->
    <title>Icon / Reactions / Thumbs Up [Active]@3x</title>
    <desc>Created with Sketch.</desc>
    <g id="Icon-/-Reactions-/-Thumbs-Up-[Active]" stroke="none" stroke-width="1" fill="none" fill-rule="evenodd">
        <rect fill="#03DAC4" x="0" y="0" width="19" height="19"></rect>
        <circle id="Oval" fill="#F1FFFE" cx="9.5" cy="9.5" r="9.5"></circle>
        <path d="M6.28263547,7.96467349 C6.55401677,7.96467349 6.77401478,8.18467151 6.77401478,8.4560528 L6.77401478,13.6229064 C6.77401478,13.8942877 6.55401677,14.1142857 6.28263547,14.1142857 L4.56280788,14.1142857 C4.29142658,14.1142857 4.07142857,13.8942877 4.07142857,13.6229064 L4.07142857,8.4560528 C4.07142857,8.18467151 4.29142658,7.96467349 4.56280788,7.96467349 L6.28263547,7.96467349 Z M12.1337931,5.03571056 L12.1300493,5.10550634 L12.1300493,5.10550634 C12.0820592,5.72445032 11.8233913,6.49687679 11.3540455,7.42278577 L14.5869458,7.42350762 C15.0754322,7.42350762 15.4714286,7.81950404 15.4714286,8.30799038 L15.4714286,8.50690077 C15.4714286,8.84899777 15.2772126,9.14573321 14.9930264,9.29286127 C15.1951946,9.45354978 15.3240148,9.70207356 15.3240148,9.9806849 L15.3240148,10.1795953 C15.3240148,10.5361747 15.1130068,10.8434705 14.8090445,10.9834291 C14.9162134,11.1284429 14.9800493,11.309661 14.9800493,11.5057887 L14.9800493,11.7046991 C14.9800493,12.0612785 14.7690413,12.3685743 14.465079,12.508533 C14.5722479,12.6535468 14.6360837,12.8347648 14.6360837,13.0308926 L14.6360837,13.229803 C14.6360837,13.7182893 14.2400873,14.1142857 13.751601,14.1142857 L7.87961823,14.1142857 C7.60823693,14.1142857 7.38823892,13.8942877 7.38823892,13.6229064 L7.38823892,8.21006832 C7.38823892,8.05930093 7.45613954,7.92439258 7.56302879,7.83425526 C7.59994248,7.79523112 7.63659114,7.75810795 7.6801379,7.71868901 C8.75792021,6.74307003 9.65287722,5.32320146 10.4102217,3.85755029 C11.1509898,2.42397838 12.2290868,3.85755029 12.1337931,5.03571056 Z" id="Combined-Shape" fill="#FF844E"></path>
    </g>
</svg>