<?xml version="1.0" encoding="UTF-8"?>
<svg width="19px" height="19px" viewBox="0 0 19 19" version="1.1" xmlns="http://www.w3.org/2000/svg" xmlns:xlink="http://www.w3.org/1999/xlink" style="background: #03DAC4;">
    <!-- Generator: Sketch 61.2 (89653) - https://sketch.com -->
    <title>Icon / Reactions / Hight-Five [Active]@3x</title>
    <desc>Created with Sketch.</desc>
    <g id="Icon-/-Reactions-/-Hight-Five-[Active]" stroke="none" stroke-width="1" fill="none" fill-rule="evenodd">
        <circle id="Oval" fill="#F1FFFE" cx="9.5" cy="9.5" r="9.5"></circle>
        <path d="M3.86199554,10.0338993 C3.86199554,10.0338993 5.30480446,11.9364586 5.79114307,12.5661974 C6.27168409,13.1883705 6.63521923,13.6290592 7.3227605,13.6304348 L7.33492665,9.96777994 C7.33734232,9.23936654 7.8837211,8.64122018 8.57016434,8.59335014 L8.57060355,8.45524229 C8.57310706,7.71119317 9.14307148,7.10309682 9.8502455,7.07851986 C9.92728315,6.78093689 10.0976971,6.52301636 10.326087,6.34047741 C10.2299875,6.28421635 10.1194381,6.25179861 10.0015099,6.25179861 L9.99913811,6.25179861 C9.75998759,6.2526698 9.55140617,6.38559631 9.43479559,6.58377098 L9.43097445,5.43140501 C9.42970074,5.04862802 9.1320912,4.73926095 8.76578903,4.73926095 L8.76346121,4.73926095 C8.52431069,4.74013215 8.31568535,4.87305866 8.19911869,5.07127918 L8.19692263,4.4094895 C8.19564892,4.02675837 7.89803938,3.7173913 7.53173721,3.7173913 L7.52936547,3.7173913 C7.16200919,3.71867518 6.86519023,4.03070169 6.86646395,4.41425817 L6.86826471,4.95412594 C6.75077571,4.75741856 6.54223821,4.62623445 6.30409787,4.62623445 L6.30177006,4.62623445 C5.93441377,4.62756417 5.63759482,4.93959069 5.63886853,5.32314717 L5.65489974,10.1559588 L4.90323363,9.16934971 C4.67458026,8.86915315 4.25605587,8.81921973 3.96854819,9.0580656 C3.68099659,9.29677391 3.63334217,9.73370274 3.86199554,10.0338993" id="Fill-1" fill="#FF844E"></path>
        <path d="M7.24047163,9.42017772 C7.24252263,8.73490894 7.74757893,8.15449842 8.41218849,8.11013995 L8.41282556,7.90763822 C8.41502259,7.21183702 8.93554663,6.62424981 9.61521449,6.59595916 C9.74118374,6.01733841 10.2308492,5.57303289 10.8374152,5.57303289 L10.8420405,5.57303742 C11.4067861,5.5751917 11.8685394,5.96188839 12.0297804,6.48221835 C12.7248522,6.49775658 13.2582732,7.09647996 13.2560459,7.8033986 L13.2462649,10.9111339 C13.6790596,10.6751548 14.2254676,10.7150964 14.6281468,11.0677013 C15.1449856,11.5198176 15.2277013,12.3182831 14.8233056,12.8776679 C14.7616751,12.9626369 14.7616751,12.9626369 14.5149889,13.3029741 C14.2837299,13.622101 14.0524744,13.941458 13.8366594,14.2398211 C13.8346089,14.2426559 13.8346089,14.2426559 13.8325584,14.2454907 C13.4494135,14.7751946 13.1579404,15.1792792 12.9953255,15.4066041 C12.3266757,16.3412172 11.8619019,16.7313149 11.0328145,16.7313149 L11.0248539,16.7313104 L9.51128277,16.725533 C8.23191923,16.7206323 7.22102209,15.6006108 7.2252099,14.2552692 C7.2282717,13.2842291 7.2282717,13.2842291 7.23267483,11.8879137 C7.23268211,11.8856049 7.23268211,11.8856049 7.2326894,11.8832962 C7.23739672,10.3912955 7.23739684,10.3912578 7.24047163,9.42017772 Z M7.24047163,9.42017772 C7.24047171,9.42015323 7.24047179,9.42012875 7.24047186,9.42010426 L7.24047141,9.42025117 C7.24047149,9.42022669 7.24047156,9.4202022 7.24047163,9.42017772 Z" id="Stroke-11" stroke="#F1FFFE" stroke-width="1.24523857" fill="#FF844E"></path>
        <path d="M12.4266243,5.03998236 L13.5996608,3.86693525 C13.6932188,3.77334191 13.6932188,3.62167599 13.5996608,3.5281146 C13.506039,3.43458515 13.3543785,3.43458515 13.2608525,3.5281146 L12.0878479,4.70112977 C11.9942579,4.7947231 11.9942579,4.94638903 12.0878479,5.03998236 C12.1814698,5.13354375 12.3330983,5.13351181 12.4266243,5.03998236 Z" id="Fill-4" stroke="#FF844E" stroke-width="0.5" fill="#FF844E"></path>
        <path d="M10.842877,3.90570571 L11.2088095,2.72595851 C11.2473594,2.6017282 11.1804721,2.46890315 11.0594249,2.42932953 C10.938347,2.3895985 10.8090193,2.45841944 10.7704695,2.58268124 L10.4045369,3.76242843 C10.365987,3.88669022 10.4328743,4.0194838 10.5539216,4.05905741 C10.6746928,4.09856807 10.8042658,4.03015639 10.842877,3.90570571 Z" id="Fill-6" stroke="#FF844E" stroke-width="0.5" fill="#FF844E"></path>
        <path d="M15.1757656,5.88323515 C15.1361889,5.76221465 15.0034479,5.69523321 14.8791135,5.73384568 L13.6992741,6.09975941 C13.5659034,6.14113211 13.4948731,6.28840541 13.558221,6.41792126 C13.5680444,6.43227443 13.5774584,6.44684228 13.5864002,6.46171682 C13.6464422,6.53526146 13.7471943,6.56770943 13.8425625,6.5381137 L15.0224019,6.17216929 C15.1466734,6.13364883 15.2153109,6.00428632 15.1757656,5.88323515" id="Fill-8" stroke="#FF844E" stroke-width="0.5" fill="#FF844E"></path>
    </g>
</svg>