<?xml version="1.0" encoding="UTF-8"?>
<svg width="19px" height="19px" viewBox="0 0 19 19" version="1.1" xmlns="http://www.w3.org/2000/svg" xmlns:xlink="http://www.w3.org/1999/xlink" style="background: #03DAC4;">
    <!-- Generator: Sketch 61.2 (89653) - https://sketch.com -->
    <title>Icon / Reactions / Heart@3x</title>
    <desc>Created with Sketch.</desc>
    <g id="Icon-/-Reactions-/-Heart" stroke="none" stroke-width="1" fill="none" fill-rule="evenodd">
        <circle id="Oval" fill="#FF844E" cx="9.5" cy="9.5" r="9.5"></circle>
        <path d="M9.49998697,6.63481275 C9.70635094,6.30257607 10.4849929,5.50463334 11.1312438,5.23727405 C11.7775196,4.96991476 12.2815893,4.94561786 12.9666531,5.07929751 C13.651692,5.21297715 14.259155,5.63831299 14.7890917,6.20947691 C15.3190532,6.78064084 15.5,7.6556094 15.5,7.97156248 C15.5,8.28753893 15.5046193,8.85853932 15.115994,9.73586748 C14.7273191,10.6132424 13.7203972,11.5015275 13.7203972,11.5015275 C13.7203972,11.5015275 9.49998697,15 9.49998697,15 L5.27960163,11.5015275 C5.27960163,11.5015275 4.27265481,10.6132424 3.88400475,9.73586748 C3.49535468,8.85853932 3.5,8.28753893 3.5,7.97156248 C3.5,7.6556094 3.68094559,6.78064084 4.21088228,6.20947691 C4.74081898,5.63831299 5.34830679,5.21297715 6.0333457,5.07929751 C6.71838461,4.94561786 7.22245437,4.96991476 7.86873015,5.23727405 C8.51498108,5.50463334 9.29364786,6.30257607 9.49998697,6.63481275 Z" id="Stroke-1" fill="#F1FFFE"></path>
    </g>
</svg>